<?xml version="1.0" encoding="UTF-8" standalone="no"?>
<svg xmlns="http://www.w3.org/2000/svg" viewBox="0 0 24 24">
<path fill="#444444"
d="M12.497 .011C6.922-.226 1.761 3.474 .359 9.099-1.244 15.527 2.668 22.038 9.096 23.641 15.526 25.244 22.038 21.33 23.641 14.902 25.244 8.474 21.332 1.963 14.902 .36 14.099 .16 13.293 .045 12.497 .011Zm-.991 4.172l1.317 .327-.528 2.121c.353 .081 .708 .162 1.054 .248l.524-2.106 1.317 .329-.538 2.161c1.663 .573 2.878 1.432 2.639 3.029-.173 1.169-.82 1.733-1.68 1.932 1.181 .615 1.782 1.558 1.209 3.193-.711 2.03-2.399 2.202-4.644 1.777l-.544 2.184-1.317-.329 .536-2.153C10.508 16.81 10.16 16.72 9.801 16.623L9.26 18.786 7.946 18.459 8.49 16.271C8.183 16.193 7.87 16.109 7.552 16.03l-1.713-.429 .652-1.505c0 0 .97 .257 .957 .238 .373 .092 .538-.151 .603-.313l.861-3.451c.048 .012 .096 .024 .14 .035-.053-.021-.101-.035-.138-.045L9.531 8.095C9.547 7.816 9.45 7.463 8.917 7.33 8.938 7.316 7.96 7.092 7.96 7.092L8.31 5.686 10.126 6.139v.008c.273 .068 .553 .132 .839 .197zm.433 4.002l-.656 2.629c.743 .185 3.036 .941 3.407-.546 .387-1.551-2.008-1.897-2.751-2.082zm-.987 3.955l-.723 2.899c.893 .222 3.646 1.105 4.053-.53 .425-1.705-2.437-2.146-3.33-2.368z" />
</svg>
