<?xml version="1.0" encoding="UTF-8" standalone="no"?>
<svg xmlns="http://www.w3.org/2000/svg" viewBox="0 0 24 24">
<path fill="#444444"
d="M11.986 0A12 12 0 0 0 0 12 12 12 0 0 0 12 24 12 12 0 0 0 24 12 12 12 0 0 0 12 0a12 12 0 0 0-.014 0zM13.09 3.857c.096 0 .206 .015 .338 .051 .814 .213 2.367 .621 3.281 .86 .334 .093 .438 .459 .163 .713-.853 .802-2.468 2.32-3.264 3.068-.459 .431-.464 .438 .167 .605 .979 .257 2.853 .748 3.872 1.015 .354 .091 .438 .407 .143 .662-1.969 1.682-8.56 7.315-10.431 8.913-.238 .205-.335 .101-.198-.167 .87-1.715 3.381-6.667 4.238-8.358 .274-.57 .275-.575-.37-.747C10.1 10.229 8.43 9.792 7.598 9.574 7.358 9.517 7.268 9.274 7.43 9.117 8.432 8.136 11.416 5.214 12.497 4.156c.158-.16 .307-.299 .593-.299z" />
</svg>