<?xml version="1.0" encoding="UTF-8" standalone="no"?>
<svg xmlns="http://www.w3.org/2000/svg" viewBox="0 0 24 24">
<path fill="#444444"
d="M12 0C5.37 0 0 5.37 0 12 0 17.31 3.435 21.795 8.205 23.385 8.805 23.49 9.03 23.13 9.03 22.815 9.03 22.53 9.015 21.585 9.015 20.58 6 21.135 5.22 19.845 4.98 19.17 4.845 18.825 4.26 17.76 3.75 17.475 3.33 17.25 2.73 16.695 3.735 16.68 4.68 16.665 5.355 17.55 5.58 17.91 6.66 19.725 8.385 19.215 9.075 18.9 9.18 18.12 9.495 17.595 9.84 17.295 7.17 16.995 4.38 15.96 4.38 11.37c0-1.305 .465-2.385 1.23-3.225-.12-.3-.54-1.53 .12-3.18 0 0 1.005-.315 3.3 1.23 .96-.27 1.98-.405 3-.405 1.02 0 2.04 .135 3 .405 2.295-1.56 3.3-1.23 3.3-1.23 .66 1.65 .24 2.88 .12 3.18 .765 .84 1.23 1.905 1.23 3.225 0 4.605-2.805 5.625-5.475 5.925 .435 .375 .81 1.095 .81 2.22 0 1.605-.015 2.895-.015 3.3 0 .315 .225 .69 .825 .57C20.565 21.795 24 17.295 24 12 24 5.37 18.63 0 12 0Z" />
</svg>
