<?xml version="1.0" encoding="UTF-8" standalone="no"?>
<svg xmlns="http://www.w3.org/2000/svg" viewBox="0 0 24 24">
<path fill="#444444"
d="M12 0A12 12 0 0 0 0 12A12 12 0 0 0 12 24A12 12 0 0 0 24 12A12 12 0 0 0 12 0zM17.375 6.793C17.486 6.791 17.759 6.838 17.971 7.016C18.183 7.194 18.246 7.308 18.264 7.408C18.282 7.509 18.28 7.821 18.262 8C18.059 10.042 17.288 14.757 16.842 17.045C16.653 18.013 16.282 18.337 15.922 18.369C15.14 18.438 14.547 17.873 13.789 17.396C12.604 16.651 12.209 16.378 11.059 15.65C9.729 14.81 10.275 14.519 11.033 13.764C11.232 13.566 14.518 10.568 14.566 10.293C14.609 10.053 14.625 10.022 14.516 9.914C14.406 9.806 14.275 9.82 14.191 9.838C14.073 9.864 12.262 11.008 8.762 13.273C8.224 13.627 7.739 13.8 7.303 13.791C6.822 13.781 5.897 13.531 5.209 13.316C4.366 13.053 3.696 12.915 3.754 12.469C3.784 12.236 4.118 11.997 4.756 11.754C8.682 10.113 11.3 9.032 12.609 8.51C16.349 7.018 16.868 6.802 17.375 6.793z" />
</svg>
