<?xml version="1.0" encoding="UTF-8" standalone="no"?>
<svg xmlns="http://www.w3.org/2000/svg" viewBox="0 0 24 24">
<path fill="#444444"
d="m23.488 4.829c-.848 .375-1.758 .629-2.715 .744 .976-.585 1.725-1.512 2.079-2.616-.913 .542-1.925 .936-3.002 1.147C18.987 3.186 17.759 2.611 16.399 2.611c-2.61 0-4.728 2.116-4.728 4.728 0 .37 .043 .73 .122 1.076C7.863 8.218 4.381 6.337 2.048 3.476 1.642 4.175 1.409 4.987 1.409 5.852c0 1.64 .835 3.088 2.103 3.935-.775-.025-1.504-.237-2.141-.592-.001 .02-.001 .04-.001 .059 0 2.291 1.63 4.203 3.793 4.637-.398 .108-.815 .165-1.245 .165-.305 0-.602-.028-.89-.083 .602 1.878 2.347 3.245 4.416 3.283-1.618 1.268-3.658 2.024-5.872 2.024-.381 0-.757-.022-1.127-.066 2.092 1.342 4.577 2.124 7.246 2.124 8.697 0 13.452-7.204 13.452-13.451 0-.204-.005-.41-.014-.612 .924-.667 1.726-1.499 2.359-2.446z" />
</svg>
